<svg width="32" height="32" viewBox="0 0 32 32" fill="none" xmlns="http://www.w3.org/2000/svg">
<rect x="0.5" y="0.5" width="31" height="31" rx="3.5" fill="white" stroke="#D3DEE7"/>
<path d="M20.9207 13.6157L22.6959 10.5406C22.796 10.3682 22.7355 10.1492 22.5654 10.049C22.3953 9.94884 22.174 10.0071 22.0762 10.1795L20.2777 13.2942C18.9055 12.6675 17.361 12.3181 15.7 12.3181C14.039 12.3181 12.4944 12.6675 11.1223 13.2942L9.32379 10.1795C9.22362 10.0071 9.00463 9.94884 8.83224 10.049C8.65984 10.1492 8.6016 10.3682 8.70178 10.5406L10.477 13.6157C7.41582 15.2744 5.34245 18.3728 5 22H26.4C26.0575 18.3728 23.9841 15.2744 20.9207 13.6157ZM10.7868 18.9948C10.2906 18.9948 9.88989 18.5918 9.88989 18.0979C9.88989 17.6017 10.2929 17.201 10.7868 17.201C11.283 17.201 11.6837 17.604 11.6837 18.0979C11.686 18.5918 11.283 18.9948 10.7868 18.9948ZM20.6108 18.9948C20.1146 18.9948 19.7139 18.5918 19.7139 18.0979C19.7139 17.6017 20.117 17.201 20.6108 17.201C21.107 17.201 21.5077 17.604 21.5077 18.0979C21.5101 18.5918 21.107 18.9948 20.6108 18.9948Z" fill="#B3B3B3"/>
</svg>
