<svg width="160" height="56" viewBox="0 0 160 56" fill="none" xmlns="http://www.w3.org/2000/svg">
<rect width="160" height="56" rx="4" fill="#E61830"/>
<path d="M56.092 17.36C56.092 16.304 55.552 15.572 54.472 15.152V15.14C55.42 14.684 55.888 13.964 55.888 12.992C55.888 12.284 55.6 11.684 55.036 11.204C54.472 10.712 53.692 10.472 52.72 10.472C51.1 10.472 49.984 11.348 49.552 12.596L50.836 13.184C51.22 12.272 51.844 11.816 52.696 11.816C53.788 11.816 54.388 12.368 54.388 13.148C54.388 13.532 54.232 13.868 53.908 14.144C53.596 14.42 53.188 14.552 52.696 14.552H51.532V15.884H52.78C53.308 15.884 53.74 16.028 54.064 16.316C54.4 16.592 54.568 16.94 54.568 17.336C54.568 17.72 54.4 18.056 54.052 18.344C53.704 18.62 53.272 18.764 52.756 18.764C51.796 18.764 51.112 18.296 50.692 17.36L49.42 17.984C49.984 19.4 51.088 20.108 52.732 20.108C53.704 20.108 54.496 19.844 55.132 19.316C55.768 18.788 56.092 18.14 56.092 17.36ZM60.7427 15.656C60.7427 16.016 60.5387 16.196 60.1427 16.196H59.3507C58.2227 16.196 56.6867 16.664 56.6867 18.152V18.224C56.6867 18.776 56.8907 19.232 57.2987 19.58C57.7067 19.928 58.2227 20.108 58.8467 20.108C59.7107 20.108 60.3347 19.784 60.7307 19.124V20H62.1347V15.92C62.1347 15.476 62.0627 15.092 61.9187 14.768C61.5227 13.892 60.7187 13.46 59.5187 13.46C58.2107 13.46 57.2987 14 56.7947 15.092L57.8867 15.716C58.2107 15.032 58.7507 14.696 59.4827 14.696C60.2867 14.696 60.7427 15.128 60.7427 15.656ZM60.7307 17.408C60.7307 18.368 60.1067 18.968 59.1347 18.968C58.5227 18.968 58.1147 18.62 58.1147 18.092C58.1147 17.816 58.2467 17.6 58.4987 17.444C58.7627 17.288 59.0507 17.204 59.3507 17.204H60.7307V17.408ZM67.885 13.592H63.385V20H64.813V14.876H67.885V13.592ZM75.1643 16.772C75.1643 15.92 74.8763 15.152 74.2883 14.48C73.7123 13.808 72.9563 13.472 72.0203 13.472C71.6603 13.472 71.2763 13.556 70.8563 13.736C70.4363 13.916 70.1123 14.192 69.8723 14.588V13.592H68.4803V23.156H69.9083V19.064C70.1363 19.412 70.4483 19.664 70.8683 19.844C71.2883 20.012 71.6603 20.096 71.9843 20.096C72.9083 20.096 73.6643 19.772 74.2643 19.112C74.8643 18.452 75.1643 17.672 75.1643 16.772ZM70.4123 15.344C70.7723 14.948 71.2403 14.756 71.8043 14.756C72.3683 14.756 72.8363 14.948 73.1843 15.344C73.5443 15.74 73.7243 16.22 73.7243 16.784C73.7243 17.348 73.5443 17.828 73.1843 18.224C72.8363 18.608 72.3683 18.8 71.8043 18.8C71.2403 18.8 70.7723 18.608 70.4123 18.224C70.0643 17.828 69.8843 17.348 69.8843 16.784C69.8843 16.22 70.0643 15.74 70.4123 15.344ZM76.9123 13.592H75.2803L78.1363 19.28L76.3723 23.156H77.8963L82.3003 13.592H80.7523L78.9043 17.792L76.9123 13.592ZM84.9199 20.132C86.4199 20.132 87.4159 19.388 87.4159 18.176C87.4159 17.456 87.0559 16.952 86.3239 16.664V16.652C86.9479 16.4 87.2959 15.884 87.2959 15.296C87.2959 14.204 86.3719 13.46 84.9199 13.46C83.7199 13.46 82.7359 14.048 82.2439 15.116L83.3599 15.716C83.6839 15.032 84.1759 14.696 84.8599 14.696C85.4839 14.696 85.8559 15.02 85.8559 15.44C85.8559 15.92 85.5079 16.22 84.8839 16.22H84.0679V17.3H84.8959C85.6039 17.3 85.9639 17.564 85.9639 18.092C85.9639 18.536 85.5199 18.884 84.8839 18.884C84.1519 18.884 83.6359 18.548 83.3359 17.888L82.1959 18.5C82.6759 19.568 83.6719 20.132 84.9199 20.132ZM88.3483 20H89.7283L92.7643 15.728V20H94.1563V13.592H92.7763L89.7403 17.876V13.592H88.3483V20ZM94.7629 14.876H96.8389V20H98.2789V14.876H100.367V13.592H94.7629V14.876ZM106.716 17.216C106.728 17.108 106.74 16.964 106.74 16.772C106.74 15.776 106.464 14.984 105.912 14.372C105.36 13.76 104.592 13.46 103.62 13.46C102.696 13.46 101.928 13.784 101.316 14.432C100.704 15.08 100.392 15.86 100.392 16.784C100.392 17.732 100.716 18.536 101.352 19.172C102 19.808 102.804 20.12 103.752 20.12C104.904 20.12 105.948 19.568 106.488 18.572L105.456 17.888C105.108 18.548 104.532 18.884 103.728 18.884C103.236 18.884 102.804 18.728 102.432 18.416C102.06 18.092 101.868 17.696 101.856 17.216H106.716ZM103.62 14.684C104.532 14.684 105.24 15.236 105.288 16.136H101.928C102.06 15.26 102.744 14.684 103.62 14.684ZM110.171 20H113.627C114.275 20 114.827 19.856 115.283 19.58C115.739 19.292 115.967 18.848 115.967 18.26C115.967 17.84 115.835 17.492 115.583 17.192C115.331 16.892 115.019 16.712 114.671 16.652C115.355 16.352 115.703 15.86 115.703 15.2C115.703 14.18 114.815 13.592 113.567 13.592H110.171V20ZM111.575 14.744H113.291C114.503 14.648 114.575 16.244 113.255 16.22H111.575V14.744ZM111.575 17.252H113.363C114.023 17.252 114.503 17.516 114.503 18.008C114.503 18.536 114.083 18.824 113.423 18.824H111.575V17.252Z" fill="white"/>
<path d="M58.4004 41H61.5352L56.6328 26.9082H53.166L48.2734 41H51.3008L52.375 37.582H57.3262L58.4004 41ZM54.8164 29.6035H54.8848L56.6914 35.375H53.0098L54.8164 29.6035ZM68.9863 30.1211C67.4727 30.1211 66.2129 30.873 65.6465 32.084H65.5879V30.248H62.7754V44.5156H65.627V39.1934H65.6855C66.2715 40.4141 67.4727 41.127 69.0254 41.127C71.7207 41.127 73.4004 39.0371 73.4004 35.6191C73.4004 32.2012 71.7109 30.1211 68.9863 30.1211ZM68.0391 38.8223C66.584 38.8223 65.6172 37.5625 65.6172 35.6289C65.6172 33.7051 66.584 32.4258 68.0391 32.4258C69.5137 32.4258 70.4805 33.6855 70.4805 35.6191C70.4805 37.5723 69.5137 38.8223 68.0391 38.8223ZM81.1348 30.1211C79.6211 30.1211 78.3613 30.873 77.7949 32.084H77.7363V30.248H74.9238V44.5156H77.7754V39.1934H77.834C78.4199 40.4141 79.6211 41.127 81.1738 41.127C83.8691 41.127 85.5488 39.0371 85.5488 35.6191C85.5488 32.2012 83.8594 30.1211 81.1348 30.1211ZM80.1875 38.8223C78.7324 38.8223 77.7656 37.5625 77.7656 35.6289C77.7656 33.7051 78.7324 32.4258 80.1875 32.4258C81.6621 32.4258 82.6289 33.6855 82.6289 35.6191C82.6289 37.5723 81.6621 38.8223 80.1875 38.8223ZM91.0469 36.9863C91.1348 39.6328 93.293 41.2441 96.6816 41.2441C100.178 41.2441 102.395 39.5156 102.395 36.7812C102.395 34.6328 101.164 33.4219 98.3418 32.8164L96.6328 32.4551C95.0117 32.084 94.3281 31.5957 94.3281 30.7266C94.3281 29.6816 95.3047 28.9883 96.7598 28.9883C98.2344 28.9883 99.2793 29.7109 99.377 30.9023H102.141C102.092 28.3535 100.031 26.6641 96.75 26.6641C93.6055 26.6641 91.3594 28.3828 91.3594 30.9805C91.3594 33.041 92.6387 34.3594 95.2363 34.916L97.0723 35.3164C98.7715 35.6973 99.4453 36.2051 99.4453 37.123C99.4453 38.1582 98.3711 38.9102 96.7988 38.9102C95.2363 38.9102 94.0254 38.1484 93.8887 36.9863H91.0469ZM104.768 27.8555V30.248H103.312V32.4062H104.768V38.0996C104.768 40.1992 105.744 41.0391 108.234 41.0391C108.811 41.0391 109.318 40.9805 109.611 40.9219V38.8125C109.436 38.8418 109.152 38.8613 108.898 38.8613C108.029 38.8613 107.619 38.4609 107.619 37.6309V32.4062H109.611V30.248H107.619V27.8555H104.768ZM115.998 41.1855C119.26 41.1855 121.301 39.1055 121.301 35.6191C121.301 32.1719 119.24 30.0625 115.998 30.0625C112.766 30.0625 110.695 32.1816 110.695 35.6191C110.695 39.0957 112.736 41.1855 115.998 41.1855ZM115.998 38.9883C114.494 38.9883 113.586 37.7578 113.586 35.6191C113.586 33.5098 114.494 32.25 115.998 32.25C117.492 32.25 118.4 33.5 118.4 35.6191C118.4 37.7578 117.502 38.9883 115.998 38.9883ZM122.834 41H125.686V34.9844C125.686 33.4805 126.535 32.582 127.98 32.582C128.4 32.582 128.791 32.6504 129.035 32.748V30.2285C128.83 30.1602 128.537 30.1211 128.205 30.1211C126.936 30.1211 126.008 30.8438 125.646 32.1719H125.588V30.248H122.834V41ZM134.699 32.1914C136.018 32.1914 136.936 33.1094 136.984 34.5156H132.346C132.443 33.1387 133.4 32.1914 134.699 32.1914ZM137.023 37.7188C136.75 38.5488 135.9 39.0566 134.826 39.0566C133.322 39.0566 132.316 38.0117 132.316 36.459V36.2832H139.738V35.4043C139.738 32.1328 137.766 30.0625 134.67 30.0625C131.516 30.0625 129.504 32.25 129.504 35.668C129.504 39.0859 131.506 41.1855 134.777 41.1855C137.395 41.1855 139.338 39.7988 139.65 37.7188H137.023Z" fill="white"/>
<path d="M35.1204 28.064C35.0818 23.7613 38.6346 21.6957 38.7953 21.5949C36.796 18.67 33.6847 18.2694 32.5748 18.2222C29.9284 17.9544 27.4085 19.78 26.0672 19.78C24.7258 19.78 22.6516 18.2608 20.4574 18.3036C17.5689 18.3465 14.9097 19.9814 13.4226 22.5656C10.4249 27.7662 12.6576 35.4737 15.5761 39.695C17.0053 41.7585 18.7067 44.0834 20.9438 43.9977C23.0994 43.912 23.9137 42.6049 26.515 42.6049C29.1163 42.6049 29.8492 43.9977 32.1269 43.957C34.4433 43.912 35.9132 41.8485 37.3317 39.7786C38.9688 37.3829 39.6459 35.0645 39.6845 34.9423C39.6331 34.9209 35.1675 33.2088 35.1204 28.064Z" fill="white"/>
<path d="M30.8412 15.4298C32.0283 13.9919 32.8297 11.9927 32.6089 10C30.8989 10.0686 28.8291 11.14 27.6012 12.5778C26.502 13.8485 25.5378 15.8841 25.7991 17.8362C27.7062 17.9841 29.6539 16.8654 30.8412 15.4298Z" fill="white"/>
</svg>
