<svg width="160" height="56" viewBox="0 0 160 56" fill="none" xmlns="http://www.w3.org/2000/svg">
<rect width="160" height="56" rx="4" fill="#E61830"/>
<path d="M13.5717 11L29.5888 26.9017L33.9806 22.5099L14.5658 11.3003C14.2644 11.1195 13.9228 11.0163 13.5717 11ZM12.2308 11.7396C12.0772 12.0151 11.9977 12.3258 12.0001 12.6412V43.543C12.0001 43.7915 12.0518 44.0141 12.1391 44.2131L28.526 27.9416L12.2308 11.7396ZM35.3215 23.2731L30.6294 27.9416L35.3208 32.5878L41.0528 29.3054C41.8678 28.8343 41.9832 28.2367 41.9773 27.9186C41.9692 27.3935 41.6371 26.9017 41.0765 26.6014C40.5883 26.3381 36.962 24.2265 35.3208 23.2731H35.3215ZM29.5895 28.9815L13.4319 45C13.7239 44.9907 14.0093 44.9113 14.264 44.7685L27.6932 37.0026L34.0028 33.374L29.5895 28.9815Z" fill="white"/>
<path d="M56.092 17.36C56.092 16.304 55.552 15.572 54.472 15.152V15.14C55.42 14.684 55.888 13.964 55.888 12.992C55.888 12.284 55.6 11.684 55.036 11.204C54.472 10.712 53.692 10.472 52.72 10.472C51.1 10.472 49.984 11.348 49.552 12.596L50.836 13.184C51.22 12.272 51.844 11.816 52.696 11.816C53.788 11.816 54.388 12.368 54.388 13.148C54.388 13.532 54.232 13.868 53.908 14.144C53.596 14.42 53.188 14.552 52.696 14.552H51.532V15.884H52.78C53.308 15.884 53.74 16.028 54.064 16.316C54.4 16.592 54.568 16.94 54.568 17.336C54.568 17.72 54.4 18.056 54.052 18.344C53.704 18.62 53.272 18.764 52.756 18.764C51.796 18.764 51.112 18.296 50.692 17.36L49.42 17.984C49.984 19.4 51.088 20.108 52.732 20.108C53.704 20.108 54.496 19.844 55.132 19.316C55.768 18.788 56.092 18.14 56.092 17.36ZM60.7427 15.656C60.7427 16.016 60.5387 16.196 60.1427 16.196H59.3507C58.2227 16.196 56.6867 16.664 56.6867 18.152V18.224C56.6867 18.776 56.8907 19.232 57.2987 19.58C57.7067 19.928 58.2227 20.108 58.8467 20.108C59.7107 20.108 60.3347 19.784 60.7307 19.124V20H62.1347V15.92C62.1347 15.476 62.0627 15.092 61.9187 14.768C61.5227 13.892 60.7187 13.46 59.5187 13.46C58.2107 13.46 57.2987 14 56.7947 15.092L57.8867 15.716C58.2107 15.032 58.7507 14.696 59.4827 14.696C60.2867 14.696 60.7427 15.128 60.7427 15.656ZM60.7307 17.408C60.7307 18.368 60.1067 18.968 59.1347 18.968C58.5227 18.968 58.1147 18.62 58.1147 18.092C58.1147 17.816 58.2467 17.6 58.4987 17.444C58.7627 17.288 59.0507 17.204 59.3507 17.204H60.7307V17.408ZM67.885 13.592H63.385V20H64.813V14.876H67.885V13.592ZM75.1643 16.772C75.1643 15.92 74.8763 15.152 74.2883 14.48C73.7123 13.808 72.9563 13.472 72.0203 13.472C71.6603 13.472 71.2763 13.556 70.8563 13.736C70.4363 13.916 70.1123 14.192 69.8723 14.588V13.592H68.4803V23.156H69.9083V19.064C70.1363 19.412 70.4483 19.664 70.8683 19.844C71.2883 20.012 71.6603 20.096 71.9843 20.096C72.9083 20.096 73.6643 19.772 74.2643 19.112C74.8643 18.452 75.1643 17.672 75.1643 16.772ZM70.4123 15.344C70.7723 14.948 71.2403 14.756 71.8043 14.756C72.3683 14.756 72.8363 14.948 73.1843 15.344C73.5443 15.74 73.7243 16.22 73.7243 16.784C73.7243 17.348 73.5443 17.828 73.1843 18.224C72.8363 18.608 72.3683 18.8 71.8043 18.8C71.2403 18.8 70.7723 18.608 70.4123 18.224C70.0643 17.828 69.8843 17.348 69.8843 16.784C69.8843 16.22 70.0643 15.74 70.4123 15.344ZM76.9123 13.592H75.2803L78.1363 19.28L76.3723 23.156H77.8963L82.3003 13.592H80.7523L78.9043 17.792L76.9123 13.592ZM84.9199 20.132C86.4199 20.132 87.4159 19.388 87.4159 18.176C87.4159 17.456 87.0559 16.952 86.3239 16.664V16.652C86.9479 16.4 87.2959 15.884 87.2959 15.296C87.2959 14.204 86.3719 13.46 84.9199 13.46C83.7199 13.46 82.7359 14.048 82.2439 15.116L83.3599 15.716C83.6839 15.032 84.1759 14.696 84.8599 14.696C85.4839 14.696 85.8559 15.02 85.8559 15.44C85.8559 15.92 85.5079 16.22 84.8839 16.22H84.0679V17.3H84.8959C85.6039 17.3 85.9639 17.564 85.9639 18.092C85.9639 18.536 85.5199 18.884 84.8839 18.884C84.1519 18.884 83.6359 18.548 83.3359 17.888L82.1959 18.5C82.6759 19.568 83.6719 20.132 84.9199 20.132ZM88.3483 20H89.7283L92.7643 15.728V20H94.1563V13.592H92.7763L89.7403 17.876V13.592H88.3483V20ZM94.7629 14.876H96.8389V20H98.2789V14.876H100.367V13.592H94.7629V14.876ZM106.716 17.216C106.728 17.108 106.74 16.964 106.74 16.772C106.74 15.776 106.464 14.984 105.912 14.372C105.36 13.76 104.592 13.46 103.62 13.46C102.696 13.46 101.928 13.784 101.316 14.432C100.704 15.08 100.392 15.86 100.392 16.784C100.392 17.732 100.716 18.536 101.352 19.172C102 19.808 102.804 20.12 103.752 20.12C104.904 20.12 105.948 19.568 106.488 18.572L105.456 17.888C105.108 18.548 104.532 18.884 103.728 18.884C103.236 18.884 102.804 18.728 102.432 18.416C102.06 18.092 101.868 17.696 101.856 17.216H106.716ZM103.62 14.684C104.532 14.684 105.24 15.236 105.288 16.136H101.928C102.06 15.26 102.744 14.684 103.62 14.684ZM110.171 20H113.627C114.275 20 114.827 19.856 115.283 19.58C115.739 19.292 115.967 18.848 115.967 18.26C115.967 17.84 115.835 17.492 115.583 17.192C115.331 16.892 115.019 16.712 114.671 16.652C115.355 16.352 115.703 15.86 115.703 15.2C115.703 14.18 114.815 13.592 113.567 13.592H110.171V20ZM111.575 14.744H113.291C114.503 14.648 114.575 16.244 113.255 16.22H111.575V14.744ZM111.575 17.252H113.363C114.023 17.252 114.503 17.516 114.503 18.008C114.503 18.536 114.083 18.824 113.423 18.824H111.575V17.252Z" fill="white"/>
<path d="M80.9149 30.5621C78.078 30.5621 75.8322 32.6923 75.8322 35.6509C75.8322 38.4911 78.078 40.7396 80.9149 40.7396C83.7518 40.7396 85.9976 38.6095 85.9976 35.6509C85.9976 32.574 83.7518 30.5621 80.9149 30.5621ZM80.9149 38.6095C79.3783 38.6095 78.078 37.3077 78.078 35.5325C78.078 33.7574 79.3783 32.4556 80.9149 32.4556C82.4515 32.4556 83.7518 33.6391 83.7518 35.5325C83.7518 37.3077 82.4515 38.6095 80.9149 38.6095ZM69.922 30.5621C67.0851 30.5621 64.8392 32.6923 64.8392 35.6509C64.8392 38.4911 67.0851 40.7396 69.922 40.7396C72.7589 40.7396 75.0047 38.6095 75.0047 35.6509C75.0047 32.574 72.7589 30.5621 69.922 30.5621ZM69.922 38.6095C68.3853 38.6095 67.0851 37.3077 67.0851 35.5325C67.0851 33.7574 68.3853 32.4556 69.922 32.4556C71.4586 32.4556 72.7589 33.6391 72.7589 35.5325C72.7589 37.3077 71.4586 38.6095 69.922 38.6095ZM56.8014 32.1006V34.2308H61.8842C61.766 35.4142 61.2931 36.3609 60.7021 36.9527C59.9929 37.6627 58.8109 38.4911 56.8014 38.4911C53.6099 38.4911 51.2459 36.0059 51.2459 32.8107C51.2459 29.6154 53.7281 27.1302 56.8014 27.1302C58.4563 27.1302 59.7565 27.8402 60.7021 28.6686L62.2388 27.1302C60.9385 25.9467 59.2837 25 56.9196 25C52.6643 25 49 28.5503 49 32.8107C49 37.071 52.6643 40.6213 56.9196 40.6213C59.2837 40.6213 60.9385 39.9112 62.357 38.3728C63.7754 36.9527 64.2482 34.9408 64.2482 33.4024C64.2482 32.929 64.2482 32.4556 64.13 32.1006H56.8014ZM110.466 33.7574C109.993 32.574 108.811 30.5621 106.21 30.5621C103.61 30.5621 101.482 32.574 101.482 35.6509C101.482 38.4911 103.61 40.7396 106.447 40.7396C108.693 40.7396 110.111 39.3195 110.584 38.4911L108.929 37.3077C108.338 38.1361 107.629 38.7278 106.447 38.7278C105.265 38.7278 104.556 38.2544 103.965 37.1894L110.702 34.3491L110.466 33.7574ZM103.61 35.4142C103.61 33.5207 105.147 32.4556 106.21 32.4556C107.038 32.4556 107.865 32.929 108.102 33.5207L103.61 35.4142ZM98.0544 40.2663H100.3V25.4734H98.0544V40.2663ZM94.5083 31.6272C93.9173 31.0355 92.9716 30.4438 91.7896 30.4438C89.3073 30.4438 86.9433 32.6923 86.9433 35.5325C86.9433 38.3728 89.1891 40.503 91.7896 40.503C92.9716 40.503 93.9173 39.9112 94.3901 39.3195H94.5083V40.0296C94.5083 41.9231 93.4445 42.9882 91.7896 42.9882C90.4894 42.9882 89.5437 42.0414 89.3073 41.213L87.4161 42.0414C88.0071 43.3432 89.4255 45 91.9078 45C94.5083 45 96.6359 43.4615 96.6359 39.7929V30.7988H94.5083V31.6272ZM91.9078 38.6095C90.3712 38.6095 89.0709 37.3077 89.0709 35.5325C89.0709 33.7574 90.3712 32.4556 91.9078 32.4556C93.4444 32.4556 94.6265 33.7574 94.6265 35.5325C94.6265 37.3077 93.4444 38.6095 91.9078 38.6095ZM120.749 25.4734H115.43V40.2663H117.676V34.7041H120.749C123.232 34.7041 125.596 32.929 125.596 30.0888C125.596 27.2485 123.232 25.4734 120.749 25.4734ZM120.868 32.574H117.676V27.4852H120.868C122.522 27.4852 123.468 28.9053 123.468 29.9704C123.35 31.2722 122.404 32.574 120.868 32.574ZM134.461 30.4438C132.806 30.4438 131.151 31.1538 130.56 32.6923L132.57 33.5207C133.043 32.6923 133.752 32.4556 134.579 32.4556C135.761 32.4556 136.825 33.1657 136.943 34.3491V34.4675C136.589 34.2308 135.643 33.8757 134.697 33.8757C132.57 33.8757 130.442 35.0592 130.442 37.1894C130.442 39.2012 132.215 40.503 134.106 40.503C135.643 40.503 136.352 39.7929 136.943 39.0828H137.061V40.2663H139.189V34.5858C138.953 31.9823 136.943 30.4438 134.461 30.4438ZM134.225 38.6095C133.515 38.6095 132.452 38.2544 132.452 37.3077C132.452 36.1243 133.752 35.7692 134.816 35.7692C135.761 35.7692 136.234 36.0059 136.825 36.2426C136.589 37.6627 135.407 38.6095 134.225 38.6095ZM146.636 30.7988L144.154 37.1894H144.035L141.435 30.7988H139.071L142.972 39.7929L140.726 44.7633H142.972L149 30.7988H146.636ZM126.778 40.2663H129.024V25.4734H126.778V40.2663Z" fill="white"/>
</svg>
