<svg viewBox="0 0 566 300" fill="none" xmlns="http://www.w3.org/2000/svg">
<path fill-rule="evenodd" clip-rule="evenodd" d="M235.906 300H438.709L484.863 230.769H311.698C297.438 252.132 279.347 270.948 257.151 286.707L257.048 286.781L256.944 286.853C250.135 291.631 243.118 296.009 235.906 300ZM335.258 184.615H427.17L473.324 115.385H351.157C350.51 122.786 349.465 130.366 348.042 138.104C345.058 154.331 340.817 169.871 335.258 184.615ZM349.401 69.2308H519.478L565.632 0H308.76C313.445 3.75188 317.813 7.84466 321.848 12.2932C336.439 28.318 345.374 47.542 349.401 69.2308Z" fill="white"/>
<path d="M0.250093 299.078L92.6337 0H178.801C232.902 0 271.197 12.4055 293.685 37.2165C314.928 60.5329 321.51 94.1624 313.429 138.105C303.534 191.912 279.01 232.716 239.856 260.516C203.215 286.224 156.78 299.078 100.55 299.078H0.250093ZM170.327 65.9137H149.355L97.6266 233.164H120.878C150.056 233.164 174.254 225.541 193.47 210.296C214.73 193.855 228.053 170.987 233.441 141.692C238.168 115.984 234.474 96.4043 222.359 82.9526C211.986 71.5933 194.642 65.9137 170.327 65.9137Z" fill="white"/>
</svg>
