<svg width="64" height="64" viewBox="0 0 64 64" fill="none" xmlns="http://www.w3.org/2000/svg">
<path d="M0 9.6C0 4.29807 4.29807 0 9.6 0H54.4C59.7019 0 64 4.29807 64 9.6V54.4C64 59.7019 59.7019 64 54.4 64H9.6C4.29807 64 0 59.7019 0 54.4V9.6Z" fill="#E61830"/>
<path fill-rule="evenodd" clip-rule="evenodd" d="M29.6064 44.6692H46.8246L50.743 38.7916H36.0414C34.8308 40.6052 33.2949 42.2025 31.4106 43.5404L31.4018 43.5466L31.393 43.5528C30.8148 43.9585 30.2189 44.3302 29.6064 44.6692ZM38.0416 34.8732H45.845L49.7634 28.9957H39.3915C39.3366 29.6239 39.2479 30.2674 39.1271 30.9243C38.8737 32.302 38.5136 33.6214 38.0416 34.8732ZM39.2425 25.0773H53.6818L57.6002 19.1997H35.7925C36.19 19.5182 36.5608 19.8655 36.9032 20.2431C38.142 21.6037 38.9007 23.2358 39.2425 25.0773Z" fill="white"/>
<path d="M9.60022 44.5911L17.4434 19.2H24.7589C29.352 19.2 32.6031 20.2532 34.5123 22.3596C36.3158 24.3391 36.8746 27.1942 36.1885 30.9248C35.3485 35.4929 33.2664 38.9571 29.9423 41.3173C26.8316 43.4998 22.8893 44.5911 18.1155 44.5911H9.60022ZM24.0394 24.7959H22.259L17.8673 38.9952H19.8413C22.3185 38.9952 24.3728 38.348 26.0042 37.0537C27.8092 35.6579 28.9403 33.7164 29.3977 31.2293C29.799 29.0468 29.4854 27.3845 28.4569 26.2425C27.5762 25.2781 26.1038 24.7959 24.0394 24.7959Z" fill="white"/>
</svg>
