<svg width="32" height="32" viewBox="0 0 32 32" fill="none" xmlns="http://www.w3.org/2000/svg">
<rect x="0.5" y="0.5" width="31" height="31" rx="3.5" fill="white" stroke="#D3DEE7"/>
<path d="M20.3802 15.5007C20.362 13.4759 22.0339 12.5038 22.1095 12.4564C21.1687 11.08 19.7046 10.8915 19.1822 10.8693C17.9369 10.7432 16.7511 11.6024 16.1198 11.6024C15.4886 11.6024 14.5125 10.8874 13.4799 10.9076C12.1207 10.9278 10.8693 11.6971 10.1695 12.9132C8.75876 15.3605 9.80948 18.9876 11.1829 20.9741C11.8555 21.9452 12.6561 23.0393 13.7088 22.9989C14.7232 22.9586 15.1064 22.3435 16.3306 22.3435C17.5547 22.3435 17.8996 22.9989 18.9715 22.9798C20.0615 22.9586 20.7533 21.9875 21.4208 21.0134C22.1912 19.8861 22.5099 18.795 22.528 18.7376C22.5038 18.7275 20.4024 17.9218 20.3802 15.5007Z" fill="#B3B3B3"/>
<path d="M18.3664 9.55518C18.9251 8.87856 19.3022 7.93774 19.1983 7C18.3936 7.0323 17.4196 7.53646 16.8418 8.21308C16.3245 8.81106 15.8707 9.76899 15.9937 10.6876C16.8912 10.7572 17.8077 10.2308 18.3664 9.55518Z" fill="#B3B3B3"/>
</svg>
