<svg width="40" height="23" viewBox="0 0 40 23" fill="none" xmlns="http://www.w3.org/2000/svg">
<path d="M29.7583 6.75827L33.0764 1.01039C33.2637 0.688166 33.1504 0.278848 32.8326 0.0916065C32.5147 -0.0956324 32.101 0.0132253 31.9181 0.335455L28.5565 6.15736C25.9917 4.98601 23.1047 4.33284 20 4.33284C16.8953 4.33284 14.0083 4.98601 11.4435 6.15736L8.08186 0.335455C7.89462 0.0132253 7.4853 -0.0956324 7.16307 0.0916065C6.84084 0.278848 6.73198 0.688166 6.91922 1.01039L10.2373 6.75827C4.51557 9.85864 0.640104 15.6501 0 22.4299H40C39.3599 15.6501 35.4844 9.85864 29.7583 6.75827ZM10.8165 16.8127C9.88896 16.8127 9.14 16.0594 9.14 15.1362C9.14 14.2087 9.89332 13.4598 10.8165 13.4598C11.744 13.4598 12.4929 14.2131 12.4929 15.1362C12.4973 16.0594 11.744 16.8127 10.8165 16.8127ZM29.1792 16.8127C28.2517 16.8127 27.5027 16.0594 27.5027 15.1362C27.5027 14.2087 28.256 13.4598 29.1792 13.4598C30.1067 13.4598 30.8556 14.2131 30.8556 15.1362C30.86 16.0594 30.1067 16.8127 29.1792 16.8127Z" fill="#B3B3B3"/>
</svg>
