<svg width="27" height="32" viewBox="0 0 27 32" fill="none" xmlns="http://www.w3.org/2000/svg">
<path d="M21.7604 17.0014C21.7241 12.9518 25.0678 11.0077 25.2191 10.9129C23.3375 8.16004 20.4092 7.78292 19.3645 7.73855C16.8738 7.48646 14.5022 9.20471 13.2397 9.20471C11.9772 9.20471 10.025 7.77486 7.95987 7.81519C5.24131 7.85553 2.73855 9.39429 1.33893 11.8265C-1.48248 16.7211 0.618962 23.9753 3.36575 27.9482C4.71091 29.8904 6.31219 32.0785 8.41766 31.9978C10.4465 31.9172 11.2129 30.687 13.6612 30.687C16.1095 30.687 16.7992 31.9978 18.943 31.9595C21.1231 31.9172 22.5066 29.975 23.8416 28.0269C25.3824 25.7722 26.0197 23.5901 26.056 23.4751C26.0076 23.455 21.8047 21.8436 21.7604 17.0014Z" fill="#B3B3B3"/>
<path d="M17.7329 5.11036C18.8501 3.75713 19.6044 1.87549 19.3967 0C17.7872 0.0646053 15.8391 1.07292 14.6835 2.42615C13.6489 3.62213 12.7414 5.53797 12.9873 7.37528C14.7823 7.51443 16.6154 6.4616 17.7329 5.11036Z" fill="#B3B3B3"/>
</svg>
